<?xml version="1.0" encoding="UTF-8" standalone="no"?>
<!-- Created with Inkscape (http://www.inkscape.org/) -->
<svg
   xmlns:dc="http://purl.org/dc/elements/1.1/"
   xmlns:cc="http://web.resource.org/cc/"
   xmlns:rdf="http://www.w3.org/1999/02/22-rdf-syntax-ns#"
   xmlns:svg="http://www.w3.org/2000/svg"
   xmlns="http://www.w3.org/2000/svg"
   xmlns:sodipodi="http://sodipodi.sourceforge.net/DTD/sodipodi-0.dtd"
   xmlns:inkscape="http://www.inkscape.org/namespaces/inkscape"
   width="216.61282"
   height="247.00783"
   id="svg2"
   sodipodi:version="0.32"
   inkscape:version="0.45pre1"
   sodipodi:docbase="C:\scratch\clipart"
   sodipodi:docname="scroll.svg"
   inkscape:output_extension="org.inkscape.output.svg.inkscape"
   version="1.0"
   sodipodi:modified="true">
  <defs
     id="defs4" />
  <sodipodi:namedview
     id="base"
     pagecolor="#ffffff"
     bordercolor="#666666"
     borderopacity="1.0"
     gridtolerance="10000"
     guidetolerance="10"
     objecttolerance="10"
     inkscape:pageopacity="0.0"
     inkscape:pageshadow="2"
     inkscape:zoom="1.5822796"
     inkscape:cx="106.43052"
     inkscape:cy="121.74098"
     inkscape:document-units="px"
     inkscape:current-layer="layer1"
     inkscape:window-width="744"
     inkscape:window-height="569"
     inkscape:window-x="1504"
     inkscape:window-y="1212"
     showborder="true" />
  <metadata
     id="metadata7">
    <rdf:RDF>
      <cc:Work
         rdf:about="">
        <dc:format>image/svg+xml</dc:format>
        <dc:type
           rdf:resource="http://purl.org/dc/dcmitype/StillImage" />
      </cc:Work>
    </rdf:RDF>
  </metadata>
  <g
     inkscape:label="Layer 1"
     inkscape:groupmode="layer"
     id="layer1"
     transform="translate(66.751217,-781.11859)">
    <g
       id="g3159">
      <path
         sodipodi:nodetypes="csssccssscc"
         d="M -41.494479,1010.6524 C -32.118858,1012.1735 -22.40291,1003.4014 -16.09094,986.97155 C -6.33046,961.56511 -6.05479,924.19515 -14.15347,896.71918 C -22.25216,869.24321 -21.97649,831.87325 -12.21601,806.46686 C -6.033212,790.37314 3.441833,781.62741 12.665518,782.70815 L 124.76588,798.61037 C 115.33519,796.98309 105.53084,805.75982 99.18962,822.26591 C 89.42914,847.6723 89.15347,885.04226 97.25216,912.51823 C 105.35084,939.9942 105.07517,977.36416 95.31469,1002.7706 C 89.15364,1018.8076 79.72347,1027.5484 70.58926,1026.5492 L -41.494479,1010.6524 z "
         style="fill:#ffffff;fill-rule:evenodd;stroke:#000000;stroke-width:3;stroke-linecap:round;stroke-linejoin:miter;stroke-miterlimit:4;stroke-dasharray:none;stroke-opacity:1"
         id="path4447" />
      <path
         sodipodi:nodetypes="csccssc"
         id="path4458"
         d="M 121.84375,798.4375 C 113.3621,798.87581 104.87605,807.47406 99.1875,822.28125 C 91.90913,841.22673 89.94047,866.81283 92.75,890 L 129.15625,895.15625 C 133.98349,895.75593 139.10542,891.44313 142.59375,883.75 C 151.62227,863.83857 149.42588,830.97256 140.34375,813.09375 C 135.0478,802.66828 128.44059,798.09659 121.84375,798.4375 z "
         style="fill:#ffffff;fill-rule:evenodd;stroke:#000000;stroke-width:3;stroke-linecap:round;stroke-linejoin:miter;stroke-miterlimit:4;stroke-dasharray:none;stroke-opacity:1" />
      <path
         id="path4496"
         style="fill:none;fill-rule:evenodd;stroke:#000000;stroke-width:3;stroke-linecap:round;stroke-linejoin:miter;stroke-miterlimit:4;stroke-dasharray:none;stroke-opacity:1"
         d="M 129.9074,895.22268 C 125.93535,895.14577 122.06441,891.8494 119.3027,884.49537 C 115.96428,875.60563 115.29025,858.6471 120.88701,853.01244 C 122.95228,850.93318 128.41977,853.54043 126.31135,860.69908"
         sodipodi:nodetypes="cssc" />
      <path
         sodipodi:nodetypes="cc"
         style="fill:none;fill-rule:evenodd;stroke:#000000;stroke-width:3;stroke-linecap:round;stroke-linejoin:miter;stroke-miterlimit:4;stroke-dasharray:none;stroke-opacity:1"
         d="M 123.1725,852.36032 L 92.909339,848.0666"
         id="path4498" />
      <path
         sodipodi:nodetypes="cc"
         id="path4500"
         d="M 126.3113,860.69781 L 117.70486,859.47673"
         style="fill:none;fill-rule:evenodd;stroke:#000000;stroke-width:3;stroke-linecap:round;stroke-linejoin:miter;stroke-miterlimit:4;stroke-dasharray:none;stroke-opacity:1" />
      <path
         sodipodi:nodetypes="ccssccssc"
         d="M 70.62208,1026.5527 L -41.47081,1010.6562 C -47.13683,1009.7619 -52.66753,1005.1124 -57.22997,996.13095 C -66.3121,978.2521 -68.51424,945.38987 -59.48571,925.47843 C -56.07123,917.94816 -51.11481,913.65154 -46.35021,914.03349 L 65.73431,929.92784 C 60.7641,929.05057 55.49623,933.39031 51.91992,941.27748 C 42.89139,961.18892 45.09353,994.05115 54.17566,1011.93 C 58.92365,1021.2767 64.71968,1025.9351 70.62208,1026.5527 z "
         style="fill:#ffffff;fill-rule:evenodd;stroke:#000000;stroke-width:3;stroke-linecap:round;stroke-linejoin:miter;stroke-miterlimit:4;stroke-dasharray:none;stroke-opacity:1"
         id="path4504" />
      <path
         id="path4523"
         style="fill:none;fill-rule:evenodd;stroke:#000000;stroke-width:3;stroke-linecap:round;stroke-linejoin:miter;stroke-miterlimit:4;stroke-dasharray:none;stroke-opacity:1"
         d="M 68.19296,964.33738 C 66.08454,971.49603 71.55203,974.10328 73.6173,972.02402 C 79.21406,966.38936 78.54003,949.43083 75.20161,940.54109 C 72.529393,933.42538 68.818681,930.10859 64.982719,929.83143"
         sodipodi:nodetypes="csss" />
      <path
         sodipodi:nodetypes="cc"
         style="fill:none;fill-rule:evenodd;stroke:#000000;stroke-width:3;stroke-linecap:round;stroke-linejoin:miter;stroke-miterlimit:4;stroke-dasharray:none;stroke-opacity:1"
         d="M 71.484498,972.69117 L 46.219385,969.10657"
         id="path4525" />
      <path
         sodipodi:nodetypes="cc"
         id="path4527"
         d="M 68.180949,964.34341 L 46.772141,961.30594"
         style="fill:none;fill-rule:evenodd;stroke:#000000;stroke-width:3;stroke-linecap:round;stroke-linejoin:miter;stroke-miterlimit:4;stroke-dasharray:none;stroke-opacity:1" />
    </g>
  </g>
</svg>
