<?xml version="1.0"?>
<svg xmlns="http://www.w3.org/2000/svg" viewBox="0 0 32 32">
    <path style="text-indent:0;text-align:start;line-height:normal;text-transform:none;block-progression:tb;-inkscape-font-specification:Sans" d="M 20.59375 3 C 19.317802 3 18.409918 3.7523003 17.875 4.0625 C 16.738039 4.7236364 16.152187 5 15 5 C 14.703036 5 14.410349 4.9975317 14.09375 4.96875 C 13.493198 4.9120608 12.276162 4.6875 11.34375 4.6875 C 10.934099 4.6875 10.538379 4.7196577 10.125 4.78125 C 8.8189739 4.9751132 7.938766 5.7689268 7.4375 6.5 C 6.936234 7.2310732 6.6446063 7.8727644 6.1875 8.28125 C 5.9475055 8.4951835 5.6286486 8.6855698 5.28125 9 C 4.9338514 9.3144302 4.564581 9.7812592 4.40625 10.40625 C 4.0863436 11.665882 4.5529903 12.790683 4.625 13.40625 C 4.7267521 14.271667 4.7686586 14.827707 4.5625 15.25 C 4.335777 15.715313 3.5841178 16.291691 3.1875 17.46875 C 2.67509 18.987002 3.267297 20.258111 3.46875 21.21875 C 3.6410153 22.037808 3.4552062 22.419354 3.3125 23.5 C 3.1772537 24.520214 3.3996238 25.498672 4 26.21875 C 4.6003762 26.938828 5.4696796 27.34524 6.46875 27.53125 C 6.5451155 27.545361 6.6397306 27.547155 6.71875 27.5625 C 7.0083389 27.66605 7.2957261 27.739434 7.59375 27.75 C 7.7956027 27.786713 7.9851484 27.81614 8.1875 27.84375 C 8.197859 27.84515 8.208385 27.84235 8.21875 27.84375 C 8.5921488 27.89277 8.8961267 27.86499 9.09375 27.875 C 9.2984226 27.88536 9.3499644 27.93316 9.3125 27.90625 C 9.30674 27.90215 9.240107 27.803028 9.40625 28.125 C 9.489321 28.285986 9.6852669 28.536209 9.96875 28.71875 C 10.252233 28.901291 10.566947 28.989184 10.875 29 C 10.995899 29.0059 11.105417 29 11.21875 29 C 13.498994 29 15.295117 28.250806 17.15625 27.875 C 17.680259 27.769648 18.349538 27.685159 19 27.53125 C 20.154754 27.257876 21.406327 27.172009 22.75 26.9375 C 24.031175 26.714591 25.194252 26.149986 25.90625 24.9375 C 26.069946 24.658754 26.393 24.42985 26.90625 24.09375 C 27.4195 23.75765 28.156611 23.252362 28.5 22.34375 C 28.915297 21.243023 28.864983 20.130206 28.75 19.125 C 28.7486 19.11291 28.7514 19.10573 28.75 19.09375 C 28.616975 17.991506 28.216291 17.334314 27.8125 16.5625 C 27.76281 16.46813 27.75565 16.48868 27.75 16.46875 C 27.78301 16.42809 28.001887 16.186563 28.3125 15.71875 C 28.725079 15.095147 29.215057 14.256495 28.9375 13.15625 C 28.823138 12.697559 28.647449 12.144607 28.28125 11.625 C 28.099195 11.366349 27.954986 11.254196 27.875 11.1875 C 27.8848 11.2131 27.86123 11.23042 27.90625 11.0625 C 27.9656 10.841152 28.118185 10.522694 28.09375 10 L 28.09375 9.96875 C 28.060099 9.2770258 27.715543 8.6570098 27.28125 8.28125 C 26.846957 7.9054902 26.399086 7.7224449 26 7.5625 C 25.575826 7.3915704 25.453992 7.2746889 25.4375 7.25 C 25.421008 7.2253111 25.365908 7.1600814 25.40625 6.78125 C 25.538329 5.5336139 24.83293 4.4657533 24 4 C 23.405039 3.6673129 22.812537 3.5366317 22.25 3.40625 C 21.92777 3.2041015 21.563959 3.0668117 21.15625 3 L 21.15625 3.09375 C 20.960846 3.0412843 20.776003 3 20.59375 3 z M 20.59375 5 C 20.68691 5 20.745878 5.026052 20.8125 5.0625 L 20.90625 5.09375 L 21.03125 5.125 C 21.130395 5.151317 21.215263 5.1618917 21.3125 5.1875 C 21.366233 5.2319942 21.418793 5.2768187 21.46875 5.34375 C 21.619288 5.5454364 21.74389 5.8769054 21.8125 6.28125 C 21.949721 7.0899391 21.86059 8.0927972 21.8125 8.65625 C 21.78419 8.9829576 21.507686 9.5338241 21.59375 10.4375 C 21.67006 11.221388 21.872848 11.658322 21.875 11.96875 C 21.8785 12.494875 21.767198 12.953406 21.65625 13.5625 C 21.545302 14.171594 21.488022 14.944314 21.78125 15.8125 C 21.972314 16.380514 22.025514 16.799513 22 16.9375 C 21.97449 17.075487 21.97405 17.141538 21.4375 17.375 C 21.120278 17.51287 20.516981 17.532353 19.78125 17.96875 C 19.438899 18.170692 19.242695 18.310714 19.125 18.375 C 19.007305 18.43929 18.944357 18.47371 18.65625 18.53125 C 18.014927 18.658806 17.330896 18.871516 16.75 19.34375 C 16.169104 19.815984 15.742759 20.636202 15.75 21.53125 C 15.7539 21.968033 15.81272 22.258004 15.8125 22.3125 C 15.811581 22.302405 15.808715 22.29937 15.75 22.375 C 15.51473 22.677389 15.054001 22.981497 15 23.03125 C 14.894576 22.95132 14.703169 22.805449 14.34375 22.6875 C 13.492901 22.409481 12.73887 22.74114 12.25 23.03125 L 12.0625 23.15625 L 11.9375 23.34375 C 11.692509 23.709838 10.618694 24.641848 9.5625 25.1875 C 9.0344032 25.460326 8.5148956 25.64798 8.09375 25.71875 C 7.9949986 25.735344 7.9263066 25.715097 7.84375 25.71875 C 7.5136882 25.661761 7.1900575 25.626491 6.84375 25.5625 C 6.1348204 25.43051 5.7346238 25.181422 5.53125 24.9375 C 5.3278762 24.693578 5.2287463 24.381786 5.3125 23.75 C 5.4317938 22.846646 5.6659847 22.047442 5.40625 20.8125 C 5.1497026 19.589139 4.85016 18.815498 5.09375 18.09375 C 5.2551322 17.614809 5.875723 17.149687 6.375 16.125 C 6.9128414 15.023293 6.6859979 13.972083 6.59375 13.1875 C 6.4797597 12.213067 6.2476564 11.284618 6.34375 10.90625 C 6.394419 10.706241 6.4428986 10.63357 6.625 10.46875 C 6.8071014 10.30393 7.1542445 10.117316 7.53125 9.78125 C 8.3621437 9.0387356 8.728516 8.1889268 9.09375 7.65625 C 9.458984 7.1235732 9.6642761 6.8601368 10.40625 6.75 C 10.690871 6.707592 11.005401 6.6875 11.34375 6.6875 C 11.939338 6.6875 13.150802 6.8661892 13.90625 6.9375 C 14.271651 6.9707183 14.630964 7 15 7 C 16.537813 7 17.655961 6.4901136 18.875 5.78125 C 19.554082 5.3874497 20.281698 5 20.59375 5 z M 23.84375 8.4375 C 24.200375 8.9294005 24.690584 9.2120721 25.25 9.4375 C 25.621914 9.5865551 25.872543 9.6980098 25.96875 9.78125 C 26.06496 9.86449 26.082401 9.860474 26.09375 10.09375 C 26.09235 10.06306 26.0509 10.256098 25.96875 10.5625 C 25.8866 10.868902 25.751983 11.324531 25.96875 11.90625 C 26.108023 12.284277 26.36033 12.532728 26.5 12.65625 C 26.63967 12.779772 26.687773 12.826036 26.65625 12.78125 C 26.73405 12.891643 26.930362 13.345691 27 13.625 C 27.00043 13.6267 26.844991 14.284161 26.65625 14.59375 C 26.65085 14.60265 26.66175 14.61666 26.65625 14.625 C 26.489437 14.867826 26.240638 15.048967 25.96875 15.53125 C 25.829794 15.777734 25.701462 16.142064 25.71875 16.5 C 25.73604 16.857936 25.863698 17.181785 26.03125 17.5 C 26.481069 18.359794 26.658719 18.546284 26.75 19.34375 C 26.853196 20.234393 26.854018 20.997558 26.625 21.625 C 26.516389 21.912388 26.27925 22.1006 25.8125 22.40625 C 25.34575 22.7119 24.659804 23.101996 24.1875 23.90625 C 23.741498 24.665764 23.447075 24.787659 22.40625 24.96875 C 21.205923 25.178241 19.902496 25.237874 18.53125 25.5625 C 18.023712 25.682591 17.369991 25.781602 16.75 25.90625 C 14.659133 26.328444 13.038506 27 11.21875 27 C 11.15375 27 11.093791 27.0022 11.03125 27 C 10.995986 26.921489 10.963733 26.823983 10.90625 26.71875 C 11.910743 26.140922 12.766983 25.457444 13.34375 24.71875 C 13.55373 24.606764 13.66673 24.576752 13.71875 24.59375 C 13.69189 24.58495 13.7543 24.60588 13.96875 24.75 C 14.1832 24.894118 14.655245 25.117783 15.15625 25.0625 C 16.327832 24.936679 16.902598 24.151841 17.3125 23.625 C 17.62207 23.226256 17.810967 22.696504 17.8125 22.3125 C 17.814 21.928496 17.75209 21.733217 17.75 21.5 C 17.7472 21.159048 17.8004 21.068516 18 20.90625 C 18.199604 20.743984 18.586573 20.588444 19.03125 20.5 C 19.454143 20.41554 19.819195 20.274964 20.09375 20.125 C 20.368305 19.975036 20.542851 19.846558 20.8125 19.6875 C 21.010769 19.569897 21.527222 19.53288 22.25 19.21875 C 23.154447 18.825212 23.821014 18.080263 23.96875 17.28125 C 24.116486 16.482237 23.87119 15.826486 23.65625 15.1875 C 23.490478 14.696686 23.537948 14.384156 23.625 13.90625 C 23.71205 13.428344 23.880526 12.805625 23.875 11.96875 C 23.869152 11.125178 23.627442 10.596112 23.59375 10.25 C 23.563814 9.9356759 23.744807 9.5937924 23.8125 8.8125 C 23.818982 8.7365619 23.834165 8.5475603 23.84375 8.4375 z M 17.8125 9 C 17.136281 9.0182812 16.07325 9.85975 15.75 10.09375 C 15.35 10.38575 14.74225 10.266 14.40625 10.625 C 14.20025 10.846 13.991 11.441 14 11.75 C 14.018 12.374 14.425 12.896 14.5 13.5 C 14.608 14.336 14.06075 15.932 15.34375 16 C 15.97775 16.032 16.2955 15.57225 16.6875 15.15625 C 17.0705 14.74725 17.5815 14.37075 18.0625 14.09375 C 18.3395 13.93475 18.877 13.84025 18.875 13.40625 C 18.874 13.15925 18.5435 12.9835 18.5625 12.6875 C 18.5805 12.3775 18.89275 12.1145 18.96875 11.8125 C 19.08175 11.3705 18.82425 11.35975 18.53125 11.09375 C 17.90625 10.52475 18.5905 9.9685 18.3125 9.3125 C 18.21575 9.084 18.037906 8.9939063 17.8125 9 z M 10.3125 15 C 9.9260371 15.026059 9.598875 15.92175 9.5 16.15625 C 9.396 16.40625 9.054 16.52125 9 16.78125 C 8.969 16.94025 9.06225 17.3025 9.15625 17.4375 C 9.34925 17.7095 9.68925 17.8135 9.90625 18.0625 C 10.20425 18.4035 10.40125 19.25925 11.03125 18.90625 C 11.34025 18.73125 11.3735 18.428 11.4375 18.125 C 11.4975 17.829 11.63525 17.517 11.78125 17.25 C 11.86725 17.096 12.09775 16.91075 11.96875 16.71875 C 11.89475 16.60775 11.67275 16.60575 11.59375 16.46875 C 11.50975 16.32575 11.58625 16.12675 11.53125 15.96875 C 11.45325 15.73675 11.343 15.81125 11.125 15.78125 C 10.659 15.71325 10.79475 15.2715 10.46875 15.0625 C 10.412 15.026 10.367709 14.996277 10.3125 15 z" overflow="visible" font-family="Sans"/>
</svg>
